<?xml version="1.0" encoding="UTF-8"?><svg xmlns="http://www.w3.org/2000/svg" xmlns:xlink="http://www.w3.org/1999/xlink" viewBox="0 0 1832.19 275.46"><defs><style>.cls-1{clip-path:url(#clippath-2);}.cls-2{fill:none;}.cls-2,.cls-3,.cls-4{stroke-width:0px;}.cls-5{clip-path:url(#clippath-1);}.cls-3{fill:#fff;}.cls-6{clip-path:url(#clippath);}.cls-4{fill:#717c7d;}</style><clipPath id="clippath"><rect class="cls-2" y="136.57" width="138.89" height="138.89"/></clipPath><clipPath id="clippath-1"><rect class="cls-2" y="136.57" width="138.89" height="138.89"/></clipPath><clipPath id="clippath-2"><rect class="cls-2" y="136.57" width="138.89" height="138.89"/></clipPath></defs><g id="Layer_1"><path class="cls-3" d="M1631.37,135.77v25.59h-5.89v-17.33l-3.67,2.93-3.19-3.93,8.85-7.26h3.89Z"/><path class="cls-3" d="M1658.36,145.51c0,5.7-3.78,11.85-10.04,16.22l-5-2.22c3-2.33,5.41-4.92,6.78-7.67-1.41.48-3.07.52-4.63.08-3.3-.81-5.55-3.81-5.55-7.56,0-4.59,3.74-8.59,9.04-8.59,5.7,0,9.41,4.19,9.41,9.74ZM1648.96,148.02c2.07,0,3.74-1.22,3.74-3.37s-1.41-3.93-3.63-3.93c-2.11,0-3.48,1.63-3.48,3.74s1.37,3.55,3.37,3.55Z"/><path class="cls-3" d="M1682.58,145.51c0,5.7-3.78,11.85-10.04,16.22l-5-2.22c3-2.33,5.41-4.92,6.78-7.67-1.41.48-3.07.52-4.63.08-3.3-.81-5.55-3.81-5.55-7.56,0-4.59,3.74-8.59,9.04-8.59,5.7,0,9.41,4.19,9.41,9.74ZM1673.17,148.02c2.07,0,3.74-1.22,3.74-3.37s-1.41-3.93-3.63-3.93c-2.11,0-3.48,1.63-3.48,3.74s1.37,3.55,3.37,3.55Z"/><path class="cls-3" d="M1703.77,136.1v4.7h-8.63v4.93c.63-.04.81-.08,1.33-.08,5.07,0,8.41,3.48,8.41,7.82s-3.15,8.22-8.77,8.22c-2.7,0-5.3-.67-7.59-2.15v-4.93c1.71,1.19,4.52,2.37,6.45,2.37,2.67,0,3.93-1.74,3.93-3.48,0-2.52-2.33-3.78-5.07-3.78-1.33,0-2.59.22-3.56.63v-14.26h13.52Z"/><path class="cls-3" d="M1725.78,149.7c0,1.06-.38,1.98-1.13,2.74s-1.67,1.13-2.74,1.13-1.98-.38-2.73-1.13-1.13-1.67-1.13-2.74c0-2.14,1.76-3.87,3.87-3.87s3.87,1.73,3.87,3.87Z"/><path class="cls-3" d="M1752.85,143.55c0,4.92-4.33,9.89-6.7,12.81h8.55v5h-18.11v-.41c4-4.08,10.48-10.96,10.48-16,0-2.81-1.89-4.15-3.78-4.15-2.04,0-4.11,1.11-6,3.3v-5.55c2.82-2.04,5.04-2.78,7.52-2.78,4.63,0,8.04,3.11,8.04,7.78Z"/><path class="cls-3" d="M1778.89,148.73c0,8.52-4.15,12.96-9.3,12.96s-9.3-4.59-9.3-12.93c0-8.74,4.33-13,9.33-13s9.26,4.67,9.26,12.96ZM1769.6,156.95c2.04,0,3.18-2.22,3.18-8.11,0-5.33-.89-8.33-3.22-8.33-1.85,0-3.18,2.22-3.18,8.26,0,5.55.89,8.19,3.22,8.19Z"/><path class="cls-3" d="M1800.46,143.55c0,4.92-4.33,9.89-6.7,12.81h8.55v5h-18.11v-.41c4-4.08,10.48-10.96,10.48-16,0-2.81-1.89-4.15-3.78-4.15-2.04,0-4.11,1.11-6,3.3v-5.55c2.82-2.04,5.04-2.78,7.52-2.78,4.63,0,8.04,3.11,8.04,7.78Z"/><path class="cls-3" d="M1823.88,136.1v4.7h-8.63v4.93c.63-.04.81-.08,1.33-.08,5.07,0,8.41,3.48,8.41,7.82s-3.15,8.22-8.78,8.22c-2.7,0-5.29-.67-7.59-2.15v-4.93c1.7,1.19,4.52,2.37,6.44,2.37,2.67,0,3.93-1.74,3.93-3.48,0-2.52-2.33-3.78-5.07-3.78-1.34,0-2.59.22-3.56.63v-14.26h13.52Z"/><path class="cls-3" d="M1401.91,187.48c3.33,0,5.33,1.75,5.33,4.63,0,3.21-2.18,4.63-5.71,4.63h-2.25v7.1h-2.35v-16.36h4.99ZM1399.27,194.67h2.16c2.73,0,3.38-1.05,3.38-2.61s-.77-2.52-3.38-2.52h-2.16v5.13Z"/><path class="cls-3" d="M1415.42,187.48c3.26,0,4.97,2.16,4.97,4.56,0,1.9-.93,3.31-2.74,4.03.96.62,1.42,1.01,3,3.41l2.88,4.37h-2.78l-2.59-4.03c-1.66-2.59-2.69-3.09-3.84-3.09h-1.05v7.12h-2.35v-16.36h4.51ZM1413.26,194.65h1.51c1.7,0,3.21-.43,3.21-2.61,0-1.58-.96-2.5-2.73-2.5h-1.99v5.11Z"/><path class="cls-3" d="M1436.15,187.48v2.09h-6.93v4.99h6.69v2.09h-6.69v5.09h7.15v2.11h-9.5v-16.36h9.28Z"/><path class="cls-3" d="M1441.62,187.48l4.97,11.49,4.85-11.49h2.33l-6.91,16.46h-.53l-7.05-16.46h2.35Z"/><path class="cls-3" d="M1466.37,187.48v2.09h-6.93v4.99h6.69v2.09h-6.69v5.09h7.15v2.11h-9.5v-16.36h9.28Z"/><path class="cls-3" d="M1472.94,187.48l10.96,12.69v-12.69h2.25v16.36h-2.04l-10.87-12.59v12.59h-2.25v-16.36h1.94Z"/><path class="cls-3" d="M1503.39,187.48v2.06h-5.71v14.3h-2.35v-14.3h-5.61v-2.06h13.67Z"/><path class="cls-3" d="M1509.31,187.48v16.36h-2.35v-16.36h2.35Z"/><path class="cls-3" d="M1516.45,187.48l10.96,12.69v-12.69h2.25v16.36h-2.04l-10.87-12.59v12.59h-2.25v-16.36h1.94Z"/><path class="cls-3" d="M1548.69,191.05c-1.87-1.1-3.96-1.7-5.8-1.7-3.53,0-6.36,2.69-6.36,6.31s2.69,6.33,6.45,6.33c1.25,0,1.9-.15,3.69-.72v-3.41h-3.14v-2.06h5.49v6.91c-2.04.93-3.96,1.34-6,1.34-6.21,0-8.95-4.39-8.95-8.25,0-4.58,3.5-8.54,8.85-8.54,1.87,0,3.33.34,5.76,1.39v2.4Z"/><path class="cls-3" d="M1561.58,187.48l4.51,11.27,4.54-11.27h2.23l4.56,11.27,4.46-11.27h2.33l-6.62,16.46h-.5l-5.35-13.34-5.4,13.34h-.5l-6.59-16.46h2.35Z"/><path class="cls-3" d="M1593.21,187.38l7.32,16.46h-2.4l-2.18-4.82h-6.96l-2.07,4.82h-2.4l7.03-16.46h1.66ZM1589.88,196.9h5.16l-2.66-6.33-2.49,6.33Z"/><path class="cls-3" d="M1608.37,187.48c3.26,0,4.97,2.16,4.97,4.56,0,1.9-.93,3.31-2.74,4.03.96.62,1.42,1.01,3,3.41l2.88,4.37h-2.78l-2.59-4.03c-1.66-2.59-2.69-3.09-3.84-3.09h-1.05v7.12h-2.35v-16.36h4.51ZM1606.21,194.65h1.51c1.7,0,3.21-.43,3.21-2.61,0-1.58-.96-2.5-2.73-2.5h-1.99v5.11Z"/><path class="cls-3" d="M1622.78,202.68c0,.81-.67,1.46-1.46,1.46-.74,0-1.44-.62-1.44-1.44,0-.89.69-1.46,1.44-1.46s1.46.62,1.46,1.44Z"/><path class="cls-3" d="M1642.29,188.41v2.66c-1.1-1.08-2.38-1.7-3.84-1.7s-2.4.77-2.4,1.9c0,.91.19,1.7,2.69,3.14,3.45,1.99,4.2,3.14,4.2,5.37,0,2.4-1.9,4.27-4.75,4.27-1.61,0-3.12-.55-4.42-1.51v-2.97c1.15,1.51,2.71,2.4,4.42,2.4,1.37,0,2.4-.89,2.4-2.16,0-1.1-.31-1.85-3.55-3.74-2.42-1.42-3.33-2.71-3.33-4.73,0-2.33,2.01-4.08,4.82-4.08,1.34,0,2.64.41,3.77,1.15Z"/><path class="cls-3" d="M1649.71,187.48v7.08h9.19v-7.08h2.35v16.36h-2.35v-7.12h-9.19v7.12h-2.35v-16.36h2.35Z"/><path class="cls-3" d="M1673.28,187.38l7.32,16.46h-2.4l-2.18-4.82h-6.96l-2.07,4.82h-2.4l7.03-16.46h1.66ZM1669.95,196.9h5.16l-2.66-6.33-2.49,6.33Z"/><path class="cls-3" d="M1688.93,187.48c3.33,0,5.32,1.75,5.32,4.63,0,3.21-2.18,4.63-5.71,4.63h-2.26v7.1h-2.35v-16.36h4.99ZM1686.29,194.67h2.16c2.73,0,3.38-1.05,3.38-2.61s-.77-2.52-3.38-2.52h-2.16v5.13Z"/><path class="cls-3" d="M1700.34,187.48v16.36h-2.35v-16.36h2.35Z"/><path class="cls-3" d="M1707.48,187.48l10.96,12.69v-12.69h2.25v16.36h-2.04l-10.87-12.59v12.59h-2.25v-16.36h1.94Z"/><path class="cls-3" d="M1739.72,191.05c-1.87-1.1-3.96-1.7-5.8-1.7-3.53,0-6.36,2.69-6.36,6.31s2.69,6.33,6.45,6.33c1.25,0,1.9-.15,3.69-.72v-3.41h-3.14v-2.06h5.49v6.91c-2.04.93-3.96,1.34-6,1.34-6.21,0-8.95-4.39-8.95-8.25,0-4.58,3.5-8.54,8.85-8.54,1.87,0,3.33.34,5.76,1.39v2.4Z"/><path class="cls-3" d="M1757.05,187.48c3.33,0,5.33,1.75,5.33,4.63,0,3.21-2.18,4.63-5.71,4.63h-2.25v7.1h-2.35v-16.36h4.99ZM1754.42,194.67h2.16c2.73,0,3.38-1.05,3.38-2.61s-.77-2.52-3.38-2.52h-2.16v5.13Z"/><path class="cls-3" d="M1775.34,187.48v2.09h-6.93v4.99h6.69v2.09h-6.69v5.09h7.15v2.11h-9.5v-16.36h9.28Z"/><path class="cls-3" d="M1787.25,187.38l7.32,16.46h-2.4l-2.18-4.82h-6.96l-2.07,4.82h-2.4l7.03-16.46h1.66ZM1783.92,196.9h5.16l-2.66-6.33-2.49,6.33Z"/><path class="cls-3" d="M1810.88,188.6v2.47c-1.75-.98-3.67-1.63-5.66-1.63-4,0-6.48,3.04-6.48,6.26s2.38,6.17,6.45,6.17c2.13,0,4.08-.65,5.85-1.83v2.57c-1.92,1.03-3.88,1.44-5.95,1.44-6.02,0-8.8-4.54-8.8-8.37,0-4.8,3.98-8.42,8.85-8.42,1.83,0,3.77.46,5.73,1.34Z"/><path class="cls-3" d="M1824.82,187.48v2.09h-6.93v4.99h6.69v2.09h-6.69v5.09h7.15v2.11h-9.5v-16.36h9.28Z"/><path class="cls-3" d="M1832.19,202.68c0,.81-.67,1.46-1.46,1.46-.74,0-1.44-.62-1.44-1.44,0-.89.69-1.46,1.44-1.46s1.46.62,1.46,1.44Z"/><path class="cls-3" d="M1779.81,0c-25.26,0-45.69,19.14-45.69,58.95,0,24.78,8.1,41.73,20.61,50.79h50.25c12.39-9,20.49-25.83,20.49-50.79,0-39.45-20.4-58.95-45.66-58.95ZM1779.81,93.21c-10.05,0-12.3-10.08-12.3-33.93,0-27.36,4.86-35.1,12.12-35.1,10.38,0,12.45,12.93,12.45,35.28,0,26.19-3.96,33.75-12.27,33.75Z"/><path class="cls-3" d="M1731.72,84.3c0,11.94-5.34,20.16-13.14,25.44h-63.18v-26.1c9,7.38,18.51,11.25,26.82,11.25,10.38,0,16.8-5.55,16.8-13.26,0-10.41-7.29-15.3-23.37-15.3v-18.45c15.57,0,21.45-5.88,21.45-13.62s-5.88-12.93-14.7-12.93c-8.31,0-16.95,3.36-23.88,7.89V7.23c11.58-5.37,21.96-7.23,32.01-7.23,23.52,0,39.27,11.43,39.27,30.57,0,9.9-6.75,20.31-15.9,25.53,13.14,6.72,17.82,16.62,17.82,28.2Z"/></g><g id="Layer_2"><g class="cls-6"><rect class="cls-4" y="136.57" width="138.89" height="138.89"/><rect class="cls-3" x="24.29" y="203.78" width="1.53" height="6.13"/><polygon class="cls-3" points="34.46 209.91 33.18 209.91 29.79 205.98 29.79 209.91 28.26 209.91 28.26 203.78 29.67 203.78 32.94 207.53 32.94 203.78 34.46 203.78 34.46 209.91"/><polygon class="cls-3" points="42.25 204.9 40.03 204.9 40.03 209.91 38.5 209.91 38.5 204.9 36.28 204.9 36.28 203.78 42.25 203.78 42.25 204.9"/><polygon class="cls-3" points="48.59 209.91 44.07 209.91 44.07 203.78 48.52 203.78 48.52 204.9 45.6 204.9 45.6 206.19 48.39 206.19 48.39 207.31 45.6 207.31 45.6 208.78 48.59 208.78 48.59 209.91"/><g class="cls-5"><path class="cls-3" d="M53.58,203.78c1.26,0,2,.84,2,1.76,0,.67-.35,1.18-1.05,1.5.63.31.82,1.07,1.68,2.87h-1.68c-.66-1.31-.9-2.49-1.73-2.49h-.44v2.49h-1.53v-6.13h2.74ZM52.37,206.29h.81c.42,0,.84-.18.84-.7,0-.46-.3-.69-.87-.69h-.77v1.39Z"/><polygon class="cls-3" points="64.17 209.91 62.88 209.91 59.5 205.98 59.5 209.91 57.97 209.91 57.97 203.78 59.37 203.78 62.64 207.53 62.64 203.78 64.17 203.78 64.17 209.91"/><path class="cls-3" d="M72.84,209.91h-1.64l-.5-1.21h-2.74l-.46,1.21h-1.62l2.47-6.13h1.77l2.72,6.13ZM69.25,205.24l-.9,2.38h1.89l-.99-2.38Z"/><polygon class="cls-3" points="79.21 204.9 76.99 204.9 76.99 209.91 75.46 209.91 75.46 204.9 73.24 204.9 73.24 203.78 79.21 203.78 79.21 204.9"/><rect class="cls-3" x="81.04" y="203.78" width="1.53" height="6.13"/><path class="cls-3" d="M88.21,209.99c-2.25,0-3.51-1.58-3.51-3.14,0-1.48,1.2-3.14,3.51-3.14s3.5,1.67,3.5,3.14c0,1.57-1.3,3.14-3.5,3.14M88.21,204.97c-1.17,0-1.94.75-1.94,1.87s.77,1.87,1.94,1.87,1.93-.75,1.93-1.87-.77-1.87-1.93-1.87"/><polygon class="cls-3" points="100.02 209.91 98.74 209.91 95.35 205.98 95.35 209.91 93.82 209.91 93.82 203.78 95.23 203.78 98.5 207.53 98.5 203.78 100.02 203.78 100.02 209.91"/><path class="cls-3" d="M108.7,209.91h-1.64l-.5-1.21h-2.74l-.46,1.21h-1.62l2.47-6.13h1.77l2.72,6.13ZM105.11,205.24l-.9,2.38h1.89l-.99-2.38Z"/><polygon class="cls-3" points="115.07 209.91 110.39 209.91 110.39 203.78 111.92 203.78 111.92 208.78 115.07 208.78 115.07 209.91"/><path class="cls-3" d="M39.53,242.57c-2.1-1.01-4.12-1.52-6.14-1.52-4.46,0-6.02,2.75-6.02,5.18,0,2.92,2.29,4.84,5.68,4.84,1.01,0,1.52-.1,2.72-.58v-1.93h-2.38v-3.01h6.48v6.72c-1.23,1.28-4.26,2.22-6.91,2.22-5.73,0-9.8-3.49-9.8-8.41s4.05-8.45,9.9-8.45c2.46,0,4.84.55,6.48,1.35v3.59Z"/><path class="cls-3" d="M51.69,237.85c3.37,0,5.37,2.26,5.37,4.72,0,1.81-.94,3.16-2.82,4.02,1.69.84,2.19,2.87,4.5,7.68h-4.5c-1.76-3.52-2.41-6.67-4.62-6.67h-1.18v6.67h-4.09v-16.43h7.35ZM48.43,244.59h2.17c1.13,0,2.24-.48,2.24-1.88,0-1.23-.79-1.86-2.34-1.86h-2.07v3.73Z"/><path class="cls-3" d="M69.06,254.49c-6.02,0-9.42-4.24-9.42-8.43,0-3.97,3.23-8.43,9.42-8.43s9.39,4.48,9.39,8.43c0,4.22-3.49,8.43-9.39,8.43M69.06,241.05c-3.13,0-5.2,2-5.2,5.01s2.07,5.01,5.2,5.01,5.18-2,5.18-5.01-2.07-5.01-5.18-5.01"/><path class="cls-3" d="M97.71,237.85v9.32c0,5.44-3.71,7.32-8.21,7.32-4.77,0-8.21-2.22-8.21-7.3v-9.35h4.09v9.44c0,2.36,1.71,3.78,4.07,3.78,2.17,0,4.17-1.13,4.17-4.07v-9.15h4.09Z"/><path class="cls-3" d="M110.08,237.85c3.76,0,5.44,2.63,5.44,4.87s-1.64,4.96-5.42,4.96h-3.25v6.6h-4.09v-16.43h7.32ZM106.85,244.67h1.9c1.88,0,2.55-.67,2.55-1.9,0-1.4-.8-1.9-3.01-1.9h-1.45v3.81Z"/><path class="cls-3" d="M40.22,231.17c-2.43,1.24-4.27,1.72-6.85,1.72-6.78,0-10.15-4.36-10.15-8.81s3.81-8.91,10.48-8.91c2.43,0,4.6.51,6.32,1.52v3.85c-1.92-1.06-3.86-1.77-6.01-1.77-3.71,0-6.32,2.18-6.32,5.24s2.58,5.29,6.21,5.29c2.28,0,3.81-.71,6.32-1.9v3.77Z"/><path class="cls-3" d="M53.39,215.39c3.58,0,5.7,2.38,5.7,4.96,0,1.9-1,3.32-2.99,4.23,1.79.89,2.33,3.01,4.78,8.08h-4.78c-1.87-3.7-2.56-7.01-4.91-7.01h-1.25v7.01h-4.35v-17.27h7.8ZM49.94,222.48h2.3c1.2,0,2.38-.51,2.38-1.97,0-1.29-.84-1.95-2.48-1.95h-2.2v3.92Z"/><rect class="cls-3" x="64.9" y="215.39" width="4.35" height="17.27"/><path class="cls-3" d="M86.93,219.87c-2.53-1.11-4.04-1.54-5.52-1.54-1.56,0-2.56.56-2.56,1.42,0,2.61,8.87,1.87,8.87,7.9,0,3.32-2.81,5.24-6.7,5.24-3.04,0-4.55-.79-6.29-1.67v-3.72c2.51,1.65,4.04,2.23,5.96,2.23,1.66,0,2.56-.58,2.56-1.6,0-2.84-8.87-1.8-8.87-8,0-2.99,2.61-4.96,6.65-4.96,1.94,0,3.71.41,5.91,1.34v3.37Z"/><rect class="cls-3" x="92.72" y="215.39" width="4.35" height="17.27"/><path class="cls-3" d="M114.74,219.87c-2.53-1.11-4.04-1.54-5.52-1.54-1.56,0-2.56.56-2.56,1.42,0,2.61,8.87,1.87,8.87,7.9,0,3.32-2.81,5.24-6.7,5.24-3.04,0-4.55-.79-6.29-1.67v-3.72c2.51,1.65,4.04,2.23,5.96,2.23,1.66,0,2.56-.58,2.56-1.6,0-2.84-8.87-1.8-8.87-8,0-2.99,2.61-4.96,6.65-4.96,1.94,0,3.71.41,5.91,1.34v3.37Z"/></g><g class="cls-1"><path class="cls-3" d="M70.48,156.93v17.54h-17.49c.03,9.64,7.85,17.44,17.49,17.44s17.49-7.83,17.49-17.49-7.83-17.49-17.49-17.49"/><path class="cls-3" d="M53.22,171.56h-1.69v-16.03h16.03v1.65c.95-.16,1.92-.25,2.92-.25v-4.32h-21.86v21.86h4.37s0-.03,0-.05c0-.98.08-1.93.24-2.86"/><path class="cls-3" d="M53.22,171.56h1.3v-4.29c-.61,1.35-1.06,2.78-1.3,4.29h0Z"/><path class="cls-3" d="M62.35,158.94c-.45.24-.88.49-1.3.77v11.85h1.3v-12.62Z"/><path class="cls-3" d="M57.13,163.12c-.47.56-.9,1.15-1.3,1.76v6.67h1.3v-8.43Z"/><path class="cls-3" d="M66.26,171.56h1.3v-14.38c-.44.07-.87.17-1.3.27v14.11Z"/><path class="cls-3" d="M64.95,157.83c-.44.15-.88.31-1.3.49v13.24h1.3v-13.73Z"/><path class="cls-3" d="M58.44,171.56h1.3v-10.92c-.45.35-.89.73-1.3,1.12v9.8Z"/></g></g></g></svg>